<svg width="128" height="128" viewBox="0 0 512 512" fill="none" xmlns="http://www.w3.org/2000/svg">
  <g stroke-linejoin="round">
    <path d="M407.1 342.1 L199.2 322.8 L310.8 146.0 Z" fill="#2A2732" fill-opacity="0.942"/>
    <path d="M92.4 149.0 L310.8 146.0 L199.2 322.8 Z" fill="#203444" fill-opacity="0.942"/>
    <path d="M252.6 503.9 L199.2 322.8 L407.1 342.1 Z" fill="#292935" fill-opacity="0.942"/>
    <path d="M199.2 322.8 L33.3 378.0 L92.4 149.0 Z" fill="#183E52" fill-opacity="0.942"/>
    <path d="M310.8 146.0 L486.7 158.2 L407.1 342.1 Z" fill="#331C22" fill-opacity="0.942"/>
    <path d="M252.6 503.9 L33.3 378.0 L199.2 322.8 Z" fill="#1C3849" fill-opacity="0.942"/>
    <path d="M254.4 7.0 L310.8 146.0 L92.4 149.0 Z" fill="#223240" fill-opacity="0.942"/>
    <path d="M254.4 7.0 L486.7 158.2 L310.8 146.0 Z" fill="#2E222C" fill-opacity="0.942"/>
    <path d="M252.6 503.9 L407.1 342.1 L463.6 431.0 Z" fill="#302029" fill-opacity="0.942"/>
    <path d="M463.6 431.0 L407.1 342.1 L486.7 158.2 Z" fill="#37181D" fill-opacity="0.942"/>
    <path d="M28.1 167.5 L92.4 149.0 L33.3 378.0 Z" fill="#194257" fill-opacity="0.944"/>
    <path d="M254.4 7.0 L92.4 149.0 L28.1 167.5 Z" fill="#23485E" fill-opacity="0.951"/>
    <path d="M252.6 503.9 L161.6 472.2 L33.3 378.0 Z" fill="#27475D" fill-opacity="0.952"/>
    <path d="M252.6 503.9 L463.6 431.0 L161.6 472.2 Z" fill="#483E4F" fill-opacity="0.963"/>
    <path d="M254.4 7.0 L351.8 177.9 L486.7 158.2 Z" fill="#5B3744" fill-opacity="0.969"/>
    <path d="M33.3 378.0 L161.6 472.2 L28.1 167.5 Z" fill="#336B8D" fill-opacity="0.970"/>
    <path d="M486.7 158.2 L351.8 177.9 L463.6 431.0 Z" fill="#6E2C35" fill-opacity="0.974"/>
    <path d="M254.4 7.0 L28.1 167.5 L351.8 177.9 Z" fill="#565D77" fill-opacity="0.980"/>
    <path d="M161.6 472.2 L463.6 431.0 L351.8 177.9 Z" fill="#774A5C" fill-opacity="0.988"/>
    <path d="M351.8 177.9 L28.1 167.5 L161.6 472.2 Z" fill="#646E8D" fill-opacity="0.992"/>
  </g>
  <g fill="none" stroke-linecap="round" stroke-linejoin="round">
    <path d="M143.6 283.5 L216.8 353.7 L372.4 182.8" stroke="#111827" stroke-opacity=".64" stroke-width="71.652"/>
    <path d="M143.6 283.5 L216.8 353.7 L372.4 182.8" stroke="#22C55E" stroke-width="44.23"/>
  </g>
</svg>
